<?xml version="1.0" encoding="iso-8859-1"?>
<!-- Generator: Adobe Illustrator 19.0.0, SVG Export Plug-In . SVG Version: 6.00 Build 0)  -->
<svg version="1.1" id="Layer_1" xmlns="http://www.w3.org/2000/svg" xmlns:xlink="http://www.w3.org/1999/xlink" x="0px" y="0px"
	 viewBox="0 0 512 512" style="enable-background:new 0 0 512 512;" xml:space="preserve">
<g>
	<g>
		<path d="M386.632,149.154l-34.354-51.532c0.067-0.028,0.136-0.051,0.203-0.08c6.014-2.548,11.078-6.759,14.677-12.08
			c1.798-2.661,3.229-5.607,4.208-8.757c0.979-3.148,1.504-6.501,1.504-9.923V33.391c0-4.565-0.935-8.999-2.631-13.003
			c-2.548-6.014-6.76-11.078-12.08-14.677c-2.661-1.798-5.607-3.229-8.757-4.208C346.253,0.523,342.9-0.001,339.478,0H172.522
			c-4.565-0.002-8.999,0.934-13.003,2.631c-6.014,2.548-11.078,6.758-14.677,12.08c-1.798,2.661-3.229,5.607-4.208,8.757
			c-0.981,3.148-1.505,6.501-1.504,9.923v33.391c-0.002,4.565,0.934,8.999,2.631,13.003c2.548,6.014,6.758,11.078,12.08,14.677
			c1.833,1.239,3.81,2.288,5.888,3.151l-34.361,51.542c-12.8,19.198-19.63,41.755-19.63,64.828v247.93
			c-0.002,6.87,1.401,13.5,3.942,19.502c3.814,9.01,10.143,16.624,18.128,22.022c3.994,2.698,8.409,4.842,13.127,6.31
			c4.717,1.467,9.738,2.254,14.889,2.254h200.348c6.87,0,13.5-1.401,19.502-3.942c9.01-3.814,16.624-10.143,22.022-18.128
			c2.698-3.994,4.842-8.409,6.31-13.127c1.467-4.718,2.254-9.739,2.254-14.889v-247.93
			C406.261,190.909,399.431,168.353,386.632,149.154z M172.522,33.391h166.957v33.391h-7.76H180.282h-7.76V33.391z M372.87,461.913
			c-0.002,2.351-0.467,4.506-1.306,6.494c-1.254,2.974-3.394,5.557-6.067,7.361c-1.336,0.903-2.797,1.609-4.352,2.094
			c-1.557,0.483-3.206,0.747-4.971,0.748H155.826c-2.352-0.002-4.506-0.467-6.494-1.306c-2.974-1.254-5.557-3.394-7.361-6.067
			c-0.903-1.336-1.609-2.797-2.094-4.352c-0.483-1.557-0.748-3.206-0.748-4.971V254.567c13.357-6.452,27.498-9.647,41.742-9.648
			c18.645,0.002,37.188,5.359,53.192,16.129l4.226,2.743h0.206c20.469,12.243,43.837,19.178,67.401,19.177
			c13.903,0,27.883-2.205,41.368-6.785l25.602-8.646V461.913z M372.87,232.272l-36.341,12.345
			c-9.992,3.394-20.333,5.061-30.63,5.062c-18.727-0.001-37.275-5.62-53.191-16.332l-4.226-2.947h-0.204
			c-20.563-12.243-43.946-18.976-67.405-18.974c-14.072-0.001-28.386,2.424-41.742,7.078v-4.521c0-16.481,4.878-32.592,14.02-46.306
			l45.003-67.503h115.695l45.003,67.503c9.14,13.713,14.019,29.825,14.019,46.306V232.272z"/>
	</g>
</g>
<g>
</g>
<g>
</g>
<g>
</g>
<g>
</g>
<g>
</g>
<g>
</g>
<g>
</g>
<g>
</g>
<g>
</g>
<g>
</g>
<g>
</g>
<g>
</g>
<g>
</g>
<g>
</g>
<g>
</g>
</svg>
