<?xml version="1.0" encoding="iso-8859-1"?>
<!-- Generator: Adobe Illustrator 17.1.0, SVG Export Plug-In . SVG Version: 6.00 Build 0)  -->
<!DOCTYPE svg PUBLIC "-//W3C//DTD SVG 1.1//EN" "http://www.w3.org/Graphics/SVG/1.1/DTD/svg11.dtd">
<svg version="1.1" id="Capa_1" xmlns="http://www.w3.org/2000/svg" xmlns:xlink="http://www.w3.org/1999/xlink" x="0px" y="0px"
	 viewBox="0 0 511 511" style="enable-background:new 0 0 511 511;" xml:space="preserve">
<g>
	<path d="M471.5,160H351V39.5C351,17.72,333.28,0,311.5,0h-112C177.72,0,160,17.72,160,39.5V160H39.5C17.72,160,0,177.72,0,199.5
		v112C0,333.28,17.72,351,39.5,351H160v120.5c0,21.78,17.72,39.5,39.5,39.5h112c21.78,0,39.5-17.72,39.5-39.5V351h120.5
		c21.78,0,39.5-17.72,39.5-39.5v-112C511,177.72,493.28,160,471.5,160z M496,311.5c0,13.509-10.991,24.5-24.5,24.5h-128
		c-4.142,0-7.5,3.358-7.5,7.5v128c0,13.509-10.991,24.5-24.5,24.5h-112c-13.509,0-24.5-10.991-24.5-24.5v-128
		c0-4.142-3.358-7.5-7.5-7.5h-128C25.991,336,15,325.009,15,311.5v-112c0-13.509,10.991-24.5,24.5-24.5h128
		c4.142,0,7.5-3.358,7.5-7.5v-128c0-13.509,10.991-24.5,24.5-24.5h112c13.509,0,24.5,10.991,24.5,24.5v128
		c0,4.142,3.358,7.5,7.5,7.5h128c13.509,0,24.5,10.991,24.5,24.5V311.5z"/>
	<path d="M295.498,47H304v120.5c0,21.78,17.72,39.5,39.5,39.5h32.001c4.142,0,7.5-3.358,7.5-7.5s-3.358-7.5-7.5-7.5H343.5
		c-13.509,0-24.5-10.991-24.5-24.5v-128c0-4.142-3.358-7.5-7.5-7.5h-16.002c-4.142,0-7.5,3.358-7.5,7.5S291.355,47,295.498,47z"/>
	<path d="M407.502,207h15.997c4.142,0,7.5-3.358,7.5-7.5s-3.358-7.5-7.5-7.5h-15.997c-4.142,0-7.5,3.358-7.5,7.5
		S403.36,207,407.502,207z"/>
	<path d="M143.499,207H167.5c21.78,0,39.5-17.72,39.5-39.5V47h56.499c4.142,0,7.5-3.358,7.5-7.5s-3.358-7.5-7.5-7.5H199.5
		c-4.142,0-7.5,3.358-7.5,7.5v128c0,13.509-10.991,24.5-24.5,24.5h-24.001c-4.142,0-7.5,3.358-7.5,7.5S139.357,207,143.499,207z"/>
	<path d="M471.5,192h-16c-4.142,0-7.5,3.358-7.5,7.5s3.358,7.5,7.5,7.5h8.5v97H343.5c-21.78,0-39.5,17.72-39.5,39.5V464h-97V343.5
		c0-21.78-17.72-39.5-39.5-39.5H47v-97h64.5c4.142,0,7.5-3.358,7.5-7.5s-3.358-7.5-7.5-7.5h-72c-4.142,0-7.5,3.358-7.5,7.5v112
		c0,4.142,3.358,7.5,7.5,7.5h128c13.509,0,24.5,10.991,24.5,24.5v128c0,4.142,3.358,7.5,7.5,7.5h112c4.142,0,7.5-3.358,7.5-7.5v-128
		c0-13.509,10.991-24.5,24.5-24.5h128c4.142,0,7.5-3.358,7.5-7.5v-112C479,195.358,475.642,192,471.5,192z"/>
</g>
<g>
</g>
<g>
</g>
<g>
</g>
<g>
</g>
<g>
</g>
<g>
</g>
<g>
</g>
<g>
</g>
<g>
</g>
<g>
</g>
<g>
</g>
<g>
</g>
<g>
</g>
<g>
</g>
<g>
</g>
</svg>
